<svg width="147" height="51" xmlns="http://www.w3.org/2000/svg">

 <g>
  <title>background</title>
  <rect fill="none" id="canvas_background" height="402" width="582" y="-1" x="-1"/>
 </g>
 <g>
  <title>Layer 1</title>
  <g id="svg_1" fill-rule="evenodd" fill="#FFF">
   <path id="svg_3" opacity="0.7" d="m0.75002,23.052c6.9088,0 13.402,-2.3515 19.066,0.6639l20.184,-23.716l-40,0l0,47l0,-25.287c0.25047,-0.005431 0.49816,-0.019007 0.75002,-0.019007l0,1.3577l-0.00002,0.000407z"/>
   <path id="svg_4" opacity="0.7" d="m0,44.578l0,6.4223l40,0c-2.2378,-11.667 -9.8136,-21.496 -20.158,-27l-19.842,20.578l0,-0.0003z"/>
   <path id="svg_5" opacity="0.5" d="m0,44.579l0,6.4209l7.0209,0l18.979,-22.652s-1.2608,-1.0527 -3.0476,-2.2888c-1.3665,-0.96307 -3.3951,-2.0593 -3.3951,-2.0593l-19.557,20.579l-0.0002,0.0002z"/>
   <path id="svg_6" d="m0.75697,19c-0.2542,0 -0.50418,0.013566 -0.75697,0.018993l0,27.981l20,-23.267c-5.7173,-3.0131 -12.27,-4.7334 -19.243,-4.7334"/>
  </g>
  <text opacity="0.5" transform="matrix(1.1099343866711846,0,0,1.2023832311706995,-6.708386740359031,-13.586254323952556) " xml:space="preserve" text-anchor="start" font-family="Helvetica, Arial, sans-serif" font-size="24" id="svg_7" y="38.453125" x="50.278766" stroke-width="0" fill="white">banana</text>
 </g>
</svg>